<svg xmlns="http://www.w3.org/2000/svg" width="584" height="604" viewBox="0 0 584 604" fill="none">
<path d="M460.69 495.231C454.146 498.654 446.611 491.874 452.016 487.418C508.483 440.851 543.685 374.995 543.685 302C543.685 229.005 508.468 163.139 451.975 116.582C446.57 112.126 454.105 105.346 460.649 108.764C508.979 134.017 555.158 170.236 584 212.863C549.902 84.344 441.299 0 297.668 0C123.816 0 0 124.702 0 302.005C0 479.308 123.816 604 297.668 604C441.125 604 549.636 519.298 583.883 391.311C555.036 433.851 508.943 470.003 460.695 495.231H460.69Z" fill="black"/>
</svg>